<svg width="36" height="37" viewBox="0 0 36 37" fill="currentColor" xmlns="http://www.w3.org/2000/svg">
<path d="M33 15.5068V9.50684C33 7.84184 31.65 6.50684 30 6.50684H6C4.35 6.50684 3.015 7.84184 3.015 9.50684V15.5068C4.665 15.5068 6 16.8568 6 18.5068C6 20.1568 4.665 21.5068 3 21.5068V27.5068C3 29.1568 4.35 30.5068 6 30.5068H30C31.65 30.5068 33 29.1568 33 27.5068V21.5068C31.35 21.5068 30 20.1568 30 18.5068C30 16.8568 31.35 15.5068 33 15.5068ZM30 13.3168C28.215 14.3518 27 16.3018 27 18.5068C27 20.7118 28.215 22.6618 30 23.6968V27.5068H6V23.6968C7.785 22.6618 9 20.7118 9 18.5068C9 16.2868 7.8 14.3518 6.015 13.3168L6 9.50684H30V13.3168ZM16.5 23.0068H19.5V26.0068H16.5V23.0068ZM16.5 17.0068H19.5V20.0068H16.5V17.0068ZM16.5 11.0068H19.5V14.0068H16.5V11.0068Z" fill="currentColor"/>
</svg>
