<svg width="37" height="37" viewBox="0 0 37 37" fill="none" xmlns="http://www.w3.org/2000/svg">
<path d="M28.8333 12.5068H27.3333V5.00684H9.33325V12.5068H7.83325C5.34325 12.5068 3.33325 14.5168 3.33325 17.0068V26.0068H9.33325V32.0068H27.3333V26.0068H33.3333V17.0068C33.3333 14.5168 31.3233 12.5068 28.8333 12.5068ZM12.3333 8.00684H24.3333V12.5068H12.3333V8.00684ZM24.3333 29.0068H12.3333V23.0068H24.3333V29.0068ZM27.3333 23.0068V20.0068H9.33325V23.0068H6.33325V17.0068C6.33325 16.1818 7.00825 15.5068 7.83325 15.5068H28.8333C29.6583 15.5068 30.3333 16.1818 30.3333 17.0068V23.0068H27.3333Z" fill="white"/>
<path d="M27.3333 19.2568C28.1617 19.2568 28.8333 18.5853 28.8333 17.7568C28.8333 16.9284 28.1617 16.2568 27.3333 16.2568C26.5048 16.2568 25.8333 16.9284 25.8333 17.7568C25.8333 18.5853 26.5048 19.2568 27.3333 19.2568Z" fill="white"/>
</svg>
