<svg width="37" height="37" viewBox="0 0 37 37" fill="none" xmlns="http://www.w3.org/2000/svg">
<path d="M30.6665 10.2568H27.3965C27.5615 9.79184 27.6665 9.28184 27.6665 8.75684C27.6665 6.26684 25.6565 4.25684 23.1665 4.25684C21.5915 4.25684 20.2265 5.06684 19.4165 6.28184L18.6665 7.28684L17.9165 6.26684C17.1065 5.06684 15.7415 4.25684 14.1665 4.25684C11.6765 4.25684 9.6665 6.26684 9.6665 8.75684C9.6665 9.28184 9.7715 9.79184 9.9365 10.2568H6.6665C5.0015 10.2568 3.6815 11.5918 3.6815 13.2568L3.6665 29.7568C3.6665 31.4218 5.0015 32.7568 6.6665 32.7568H30.6665C32.3315 32.7568 33.6665 31.4218 33.6665 29.7568V13.2568C33.6665 11.5918 32.3315 10.2568 30.6665 10.2568ZM23.1665 7.25684C23.9915 7.25684 24.6665 7.93184 24.6665 8.75684C24.6665 9.58184 23.9915 10.2568 23.1665 10.2568C22.3415 10.2568 21.6665 9.58184 21.6665 8.75684C21.6665 7.93184 22.3415 7.25684 23.1665 7.25684ZM14.1665 7.25684C14.9915 7.25684 15.6665 7.93184 15.6665 8.75684C15.6665 9.58184 14.9915 10.2568 14.1665 10.2568C13.3415 10.2568 12.6665 9.58184 12.6665 8.75684C12.6665 7.93184 13.3415 7.25684 14.1665 7.25684ZM30.6665 29.7568H6.6665V26.7568H30.6665V29.7568ZM30.6665 22.2568H6.6665V13.2568H14.2865L11.1665 17.5018L13.5965 19.2568L18.6665 12.3568L23.7365 19.2568L26.1665 17.5018L23.0465 13.2568H30.6665V22.2568Z" fill="white"/>
</svg>
