<svg width="16" height="16" viewBox="0 0 16 16" fill="none" xmlns="http://www.w3.org/2000/svg">
<path d="M13.3333 4.33329H11.88C11.9533 4.12663 12 3.89996 12 3.66663C12 2.55996 11.1067 1.66663 10 1.66663C9.30001 1.66663 8.69334 2.02663 8.33334 2.56663L8.00001 3.01329L7.66668 2.55996C7.30668 2.02663 6.70001 1.66663 6.00001 1.66663C4.89334 1.66663 4.00001 2.55996 4.00001 3.66663C4.00001 3.89996 4.04668 4.12663 4.12001 4.33329H2.66668C1.92668 4.33329 1.34001 4.92663 1.34001 5.66663L1.33334 13C1.33334 13.74 1.92668 14.3333 2.66668 14.3333H13.3333C14.0733 14.3333 14.6667 13.74 14.6667 13V5.66663C14.6667 4.92663 14.0733 4.33329 13.3333 4.33329ZM10 2.99996C10.3667 2.99996 10.6667 3.29996 10.6667 3.66663C10.6667 4.03329 10.3667 4.33329 10 4.33329C9.63334 4.33329 9.33334 4.03329 9.33334 3.66663C9.33334 3.29996 9.63334 2.99996 10 2.99996ZM6.00001 2.99996C6.36668 2.99996 6.66668 3.29996 6.66668 3.66663C6.66668 4.03329 6.36668 4.33329 6.00001 4.33329C5.63334 4.33329 5.33334 4.03329 5.33334 3.66663C5.33334 3.29996 5.63334 2.99996 6.00001 2.99996ZM13.3333 13H2.66668V11.6666H13.3333V13ZM13.3333 9.66663H2.66668V5.66663H6.05334L4.66668 7.55329L5.74668 8.33329L8.00001 5.26663L10.2533 8.33329L11.3333 7.55329L9.94668 5.66663H13.3333V9.66663Z" fill="black"/>
</svg>
