<svg width="16" height="16" viewBox="0 0 16 16" fill="none" xmlns="http://www.w3.org/2000/svg">
<path d="M11.8333 6.90004V6.00004C11.8333 4.89337 10.94 4.00004 9.83334 4.00004H6.16668C5.06001 4.00004 4.16668 4.89337 4.16668 6.00004V6.90004C3.67334 7.18671 3.33334 7.72004 3.33334 8.33337V10.6667C3.33334 11.4 3.93334 12 4.66668 12H11.3333C12.0667 12 12.6667 11.4 12.6667 10.6667V8.33337C12.6667 7.72004 12.3267 7.18671 11.8333 6.90004ZM6.16668 5.00004H9.83334C10.3867 5.00004 10.8333 5.44671 10.8333 6.00004V6.68671C9.99334 6.76671 9.33334 7.46671 9.33334 8.33337V8.66671H6.66668V8.33337C6.66668 7.46671 6.00668 6.76671 5.16668 6.68671V6.00004C5.16668 5.44671 5.61334 5.00004 6.16668 5.00004ZM11.6667 10.6667C11.6667 10.8534 11.52 11 11.3333 11H4.66668C4.48001 11 4.33334 10.8534 4.33334 10.6667V8.33337C4.33334 7.96671 4.63334 7.66671 5.00001 7.66671C5.36668 7.66671 5.66668 7.96671 5.66668 8.33337V9.66671H10.3333V8.33337C10.3333 7.96671 10.6333 7.66671 11 7.66671C11.3667 7.66671 11.6667 7.96671 11.6667 8.33337V10.6667ZM13.3333 2.66671V13.3334H2.66668V2.66671H13.3333ZM13.3333 1.33337H2.66668C1.93334 1.33337 1.33334 1.93337 1.33334 2.66671V13.3334C1.33334 14.0667 1.93334 14.6667 2.66668 14.6667H13.3333C14.0667 14.6667 14.6667 14.0667 14.6667 13.3334V2.66671C14.6667 1.93337 14.0667 1.33337 13.3333 1.33337Z" fill="black"/>
</svg>
