<svg width="16" height="16" viewBox="0 0 16 16" fill="none" xmlns="http://www.w3.org/2000/svg">
<path d="M3.99999 8.85669C3.99999 7.75669 4.44666 6.75669 5.17332 6.03002L4.22666 5.08336C3.26666 6.05002 2.66666 7.38336 2.66666 8.85669C2.66666 11.5767 4.69999 13.8167 7.33332 14.1434V12.7967C5.44666 12.4767 3.99999 10.8367 3.99999 8.85669ZM13.3333 8.85669C13.3333 5.91002 10.9467 3.52336 7.99999 3.52336C7.95999 3.52336 7.91999 3.53002 7.87999 3.53002L8.60666 2.80336L7.66666 1.85669L5.33332 4.19002L7.66666 6.52336L8.60666 5.58336L7.88666 4.86336C7.92666 4.86336 7.96666 4.85669 7.99999 4.85669C10.2067 4.85669 12 6.65002 12 8.85669C12 10.8367 10.5533 12.4767 8.66666 12.7967V14.1434C11.3 13.8167 13.3333 11.5767 13.3333 8.85669Z" fill="black"/>
</svg>
