<svg width="36" height="36" viewBox="0 0 36 36" fill="none" xmlns="http://www.w3.org/2000/svg">
<path d="M33 15V9C33 7.335 31.65 6 30 6H6C4.35 6 3.015 7.335 3.015 9V15C4.665 15 6 16.35 6 18C6 19.65 4.665 21 3 21V27C3 28.65 4.35 30 6 30H30C31.65 30 33 28.65 33 27V21C31.35 21 30 19.65 30 18C30 16.35 31.35 15 33 15ZM30 12.81C28.215 13.845 27 15.795 27 18C27 20.205 28.215 22.155 30 23.19V27H6V23.19C7.785 22.155 9 20.205 9 18C9 15.78 7.8 13.845 6.015 12.81L6 9H30V12.81ZM16.5 22.5H19.5V25.5H16.5V22.5ZM16.5 16.5H19.5V19.5H16.5V16.5ZM16.5 10.5H19.5V13.5H16.5V10.5Z" fill="white"/>
</svg>
