<svg width="32" height="32" viewBox="0 0 32 32" fill="none" xmlns="http://www.w3.org/2000/svg">
<path d="M14.6666 24C14.6666 25.4667 13.4666 26.6667 11.9999 26.6667C10.5333 26.6667 9.33325 25.4667 9.33325 24C9.33325 22.5334 10.5333 21.3334 11.9999 21.3334C13.4666 21.3334 14.6666 22.5334 14.6666 24ZM11.9999 13.3334C10.5333 13.3334 9.33325 14.5334 9.33325 16C9.33325 17.4667 10.5333 18.6667 11.9999 18.6667C13.4666 18.6667 14.6666 17.4667 14.6666 16C14.6666 14.5334 13.4666 13.3334 11.9999 13.3334ZM11.9999 5.33337C10.5333 5.33337 9.33325 6.53337 9.33325 8.00004C9.33325 9.46671 10.5333 10.6667 11.9999 10.6667C13.4666 10.6667 14.6666 9.46671 14.6666 8.00004C14.6666 6.53337 13.4666 5.33337 11.9999 5.33337ZM19.9999 10.6667C21.4666 10.6667 22.6666 9.46671 22.6666 8.00004C22.6666 6.53337 21.4666 5.33337 19.9999 5.33337C18.5333 5.33337 17.3333 6.53337 17.3333 8.00004C17.3333 9.46671 18.5333 10.6667 19.9999 10.6667ZM19.9999 13.3334C18.5333 13.3334 17.3333 14.5334 17.3333 16C17.3333 17.4667 18.5333 18.6667 19.9999 18.6667C21.4666 18.6667 22.6666 17.4667 22.6666 16C22.6666 14.5334 21.4666 13.3334 19.9999 13.3334ZM19.9999 21.3334C18.5333 21.3334 17.3333 22.5334 17.3333 24C17.3333 25.4667 18.5333 26.6667 19.9999 26.6667C21.4666 26.6667 22.6666 25.4667 22.6666 24C22.6666 22.5334 21.4666 21.3334 19.9999 21.3334Z" fill="#FFAB00"/>
</svg>
