<svg width="32" height="32" viewBox="0 0 32 32" fill="none" xmlns="http://www.w3.org/2000/svg">
<path d="M2.66659 21.3333H29.3333V24H2.66659V21.3333ZM4.19992 15.9333L5.33325 13.96L6.46659 15.9333L8.19992 14.9333L7.06659 12.96H9.33325V10.96H7.06659L8.19992 9L6.46659 8L5.33325 9.96L4.19992 8L2.46659 9L3.59992 10.96H1.33325V12.96H3.59992L2.46659 14.9333L4.19992 15.9333ZM13.1333 14.9333L14.8666 15.9333L15.9999 13.96L17.1333 15.9333L18.8666 14.9333L17.7333 12.96H19.9999V10.96H17.7333L18.8666 9L17.1333 8L15.9999 9.96L14.8666 8L13.1333 9L14.2666 10.96H11.9999V12.96H14.2666L13.1333 14.9333ZM30.6666 10.96H28.3999L29.5333 9L27.7999 8L26.6666 9.96L25.5333 8L23.7999 9L24.9333 10.96H22.6666V12.96H24.9333L23.7999 14.9333L25.5333 15.9333L26.6666 13.96L27.7999 15.9333L29.5333 14.9333L28.3999 12.96H30.6666V10.96Z" fill="#3A52AD"/>
</svg>
