<svg width="36" height="36" viewBox="0 0 36 36" fill="none" xmlns="http://www.w3.org/2000/svg">
<path d="M30 9.75H26.73C26.895 9.285 27 8.775 27 8.25C27 5.76 24.99 3.75 22.5 3.75C20.925 3.75 19.56 4.56 18.75 5.775L18 6.78L17.25 5.76C16.44 4.56 15.075 3.75 13.5 3.75C11.01 3.75 9 5.76 9 8.25C9 8.775 9.105 9.285 9.27 9.75H6C4.335 9.75 3.015 11.085 3.015 12.75L3 29.25C3 30.915 4.335 32.25 6 32.25H30C31.665 32.25 33 30.915 33 29.25V12.75C33 11.085 31.665 9.75 30 9.75ZM22.5 6.75C23.325 6.75 24 7.425 24 8.25C24 9.075 23.325 9.75 22.5 9.75C21.675 9.75 21 9.075 21 8.25C21 7.425 21.675 6.75 22.5 6.75ZM13.5 6.75C14.325 6.75 15 7.425 15 8.25C15 9.075 14.325 9.75 13.5 9.75C12.675 9.75 12 9.075 12 8.25C12 7.425 12.675 6.75 13.5 6.75ZM30 29.25H6V26.25H30V29.25ZM30 21.75H6V12.75H13.62L10.5 16.995L12.93 18.75L18 11.85L23.07 18.75L25.5 16.995L22.38 12.75H30V21.75Z" fill="white"/>
</svg>
