<svg width="32" height="32" viewBox="0 0 32 32" fill="none" xmlns="http://www.w3.org/2000/svg">
<path d="M20 4H6.66667C5.2 4 4.01333 5.2 4.01333 6.66667L4 25.3333C4 26.8 5.18667 28 6.65333 28H25.3333C26.8 28 28 26.8 28 25.3333V12L20 4ZM6.66667 25.3333V6.66667H18.6667V13.3333H25.3333V25.3333H6.66667ZM12 10.6667C12 11.4 11.4 12 10.6667 12C9.93333 12 9.33333 11.4 9.33333 10.6667C9.33333 9.93333 9.93333 9.33333 10.6667 9.33333C11.4 9.33333 12 9.93333 12 10.6667ZM12 16C12 16.7333 11.4 17.3333 10.6667 17.3333C9.93333 17.3333 9.33333 16.7333 9.33333 16C9.33333 15.2667 9.93333 14.6667 10.6667 14.6667C11.4 14.6667 12 15.2667 12 16ZM12 21.3333C12 22.0667 11.4 22.6667 10.6667 22.6667C9.93333 22.6667 9.33333 22.0667 9.33333 21.3333C9.33333 20.6 9.93333 20 10.6667 20C11.4 20 12 20.6 12 21.3333Z" fill="#23AA5A"/>
</svg>
